<?xml version="1.0" encoding="utf-8"?>
<!-- Generator: Adobe Illustrator 16.0.3, SVG Export Plug-In . SVG Version: 6.00 Build 0)  -->
<!DOCTYPE svg PUBLIC "-//W3C//DTD SVG 1.1//EN" "http://www.w3.org/Graphics/SVG/1.1/DTD/svg11.dtd">
<svg version="1.1" id="Layer_1" xmlns="http://www.w3.org/2000/svg" xmlns:xlink="http://www.w3.org/1999/xlink" x="0px" y="0px"
	 width="51.949px" height="42px" viewBox="0 0 51.949 42" enable-background="new 0 0 51.949 42" xml:space="preserve">
<g>
	<defs>
		<rect id="SVGID_1_" x="-793.554" y="-133.954" width="1024" height="545.51"/>
	</defs>
	<clipPath id="SVGID_2_">
		<use xlink:href="#SVGID_1_"  overflow="visible"/>
	</clipPath>
</g>
<g>
	<circle fill="#FFFFFF" cx="25.943" cy="36.773" r="5.227"/>
	<path fill="#FFFFFF" d="M37.09,25.628c-2.962-2.959-6.927-4.596-11.147-4.596c-4.219,0-8.186,1.636-11.146,4.596l3.715,3.715
		c3.967-3.968,10.894-3.968,14.862,0L37.09,25.628z"/>
	<path fill="#FFFFFF" d="M44.518,18.197c-10.201-10.2-26.887-10.2-37.088,0l3.715,3.715c8.185-8.186,21.472-8.186,29.658,0
		L44.518,18.197z"/>
	<path fill="#FFFFFF" d="M0,10.831l3.715,3.715c5.92-5.983,13.791-9.257,22.228-9.257s16.31,3.274,22.291,9.194l3.715-3.715
		C45.024,3.841,35.767,0,26.006,0C16.247,0,6.929,3.841,0,10.831z"/>
</g>
</svg>
