<?xml version="1.0" encoding="utf-8"?>
<!-- Generator: Adobe Illustrator 17.0.0, SVG Export Plug-In . SVG Version: 6.00 Build 0)  -->
<!DOCTYPE svg PUBLIC "-//W3C//DTD SVG 1.1//EN" "http://www.w3.org/Graphics/SVG/1.1/DTD/svg11.dtd">
<svg version="1.1" id="Layer_1" xmlns="http://www.w3.org/2000/svg" xmlns:xlink="http://www.w3.org/1999/xlink" x="0px" y="0px"
	 width="55.512px" height="36.508px" viewBox="0 0 55.512 36.508" enable-background="new 0 0 55.512 36.508" xml:space="preserve">
<g transform="translate(0,-952.36218)">
	<path opacity="0.968" fill="#FFFFFF" enable-background="new    " d="M15.437,952.362l0.001,0.608l-0.001,7.002
		c-1.142,0-2.283,0-3.425,0v-1.522c0-0.841-0.681-1.522-1.522-1.522s-1.522,0.681-1.522,1.522v1.522c-1.142,0-2.283,0-3.425,0
		l-5.327,11.265c-0.047,4.009,0.001,8.127,0.001,12.177h6.125c0.312,3.109,2.927,5.476,6.052,5.48c3.127,0,5.745-2.369,6.058-5.48
		h18.333c0.312,3.109,2.927,5.476,6.052,5.48c3.127,0,5.745-2.369,6.058-5.48h6.118l0.304-31.051H15.437z M32.687,958.451h5.075
		v5.073h5.073v5.075h-5.073v5.073h-5.075v-5.073h-5.073v-5.075h5.073V958.451z M7.065,963.016h8.372v8.221H4.012L7.065,963.016z
		 M12.394,979.759c1.681,0,3.044,1.363,3.044,3.044s-1.363,3.044-3.044,3.044s-3.044-1.363-3.044-3.044
		S10.713,979.759,12.394,979.759z M42.836,979.759c1.681,0,3.044,1.363,3.044,3.044s-1.363,3.044-3.044,3.044
		c-1.681,0-3.044-1.363-3.044-3.044S41.155,979.759,42.836,979.759z"/>
</g>
</svg>
