<?xml version="1.0" encoding="utf-8"?>
<!-- Generator: Adobe Illustrator 17.0.0, SVG Export Plug-In . SVG Version: 6.00 Build 0)  -->
<!DOCTYPE svg PUBLIC "-//W3C//DTD SVG 1.1//EN" "http://www.w3.org/Graphics/SVG/1.1/DTD/svg11.dtd">
<svg version="1.1" id="Layer_1" xmlns="http://www.w3.org/2000/svg" xmlns:xlink="http://www.w3.org/1999/xlink" x="0px" y="0px"
	 width="55.512px" height="36.508px" viewBox="0 0 55.512 36.508" enable-background="new 0 0 55.512 36.508" xml:space="preserve">
<g>
	<polygon fill="#FFFFFF" points="46.549,-0.049 46.549,18.5 34.962,18.5 34.962,37.049 39.599,37.049 39.599,23.137 46.549,23.137 
		46.549,37.049 51.186,37.049 51.186,-0.049 	"/>
	<polygon fill="#FFFFFF" points="9.451,-0.049 9.451,18.5 21.05,18.5 21.05,37.049 16.413,37.049 16.413,23.137 9.451,23.137 
		9.451,37.049 4.814,37.049 4.814,-0.049 	"/>
	<polygon fill="#FFFFFF" points="41.912,9.225 14.088,9.225 14.088,13.863 25.638,13.863 25.638,37.049 30.275,37.049 
		30.275,13.863 41.912,13.863 	"/>
</g>
</svg>
