<?xml version="1.0" encoding="utf-8"?>
<!-- Generator: Adobe Illustrator 16.0.3, SVG Export Plug-In . SVG Version: 6.00 Build 0)  -->
<!DOCTYPE svg PUBLIC "-//W3C//DTD SVG 1.1//EN" "http://www.w3.org/Graphics/SVG/1.1/DTD/svg11.dtd">
<svg version="1.1" id="Layer_1" xmlns="http://www.w3.org/2000/svg" xmlns:xlink="http://www.w3.org/1999/xlink" x="0px" y="0px"
	 width="60.687px" height="42px" viewBox="0 0 60.687 42" enable-background="new 0 0 60.687 42" xml:space="preserve">
<g>
	<defs>
		<rect id="SVGID_1_" x="-501.25" y="-136.454" width="1024" height="545.51"/>
	</defs>
	<clipPath id="SVGID_2_">
		<use xlink:href="#SVGID_1_"  overflow="visible"/>
	</clipPath>
</g>
<g>
	<path fill="#FFFFFF" d="M26.326,40.224c0,1.185,0.576,1.775,1.733,1.775c1.151,0,1.728-0.591,1.728-1.775V24.255h1.772v15.969
		c0,1.185,0.578,1.775,1.732,1.775c1.152,0,1.732-0.591,1.732-1.775V13.015h0.843v9.8c0,0.621,0.212,1.072,0.632,1.354
		c0.426,0.282,0.858,0.282,1.309,0c0.452-0.282,0.676-0.733,0.676-1.354v-10.56c0-1.129-0.379-2.001-1.139-2.621
		c-0.763-0.618-1.814-0.929-3.166-0.929h-6.924c-1.294,0-2.349,0.282-3.164,0.844c-0.818,0.563-1.225,1.438-1.225,2.62v11.239
		c0,0.507,0.224,0.874,0.675,1.1c0.449,0.225,0.886,0.225,1.306,0c0.424-0.227,0.634-0.593,0.634-1.1V13.015h0.845L26.326,40.224
		L26.326,40.224z"/>
	<path fill="#FFFFFF" d="M58.832,27.294l-5.065-14.027c-0.058-0.057-0.084-0.114-0.084-0.168c0-0.285,0.137-0.424,0.421-0.424
		c0.169,0,0.283,0.112,0.336,0.34l3.462,9.042c0.284,0.618,0.901,0.928,1.858,0.928c0.34,0,0.577-0.255,0.719-0.761
		c0.139-0.505,0.209-0.845,0.209-1.013l-3.546-8.706c-0.113-1.071-0.619-1.972-1.518-2.705c-0.899-0.731-1.941-1.097-3.124-1.097
		h-4.476c-1.181,0-2.24,0.38-3.167,1.141c-0.928,0.761-1.475,1.647-1.644,2.662l-3.292,8.787c-0.115,0.17-0.086,0.493,0.083,0.973
		c0.169,0.479,0.422,0.719,0.759,0.719c1.07,0,1.688-0.282,1.858-0.846l3.375-9.125c0.056-0.172,0.171-0.255,0.338-0.255
		c0.226,0,0.339,0.113,0.339,0.339v0.083l-4.98,14.112v1.1c0,0.113,0.138,0.31,0.423,0.592c0.28,0.281,0.476,0.424,0.589,0.424h3.21
		v10.899c0,0.45,0.181,0.846,0.547,1.183C46.829,41.83,47.237,42,47.687,42c0.449,0,0.844-0.17,1.181-0.508
		c0.34-0.337,0.507-0.732,0.507-1.183V28.985c0-0.055,0.154-0.099,0.464-0.127c0.31-0.03,0.607-0.03,0.888,0
		c0.283,0.029,0.425,0.072,0.425,0.127v11.239c0,0.452,0.168,0.859,0.505,1.225c0.338,0.365,0.746,0.551,1.223,0.551
		c0.479,0,0.888-0.184,1.225-0.551c0.335-0.366,0.508-0.772,0.508-1.225V29.408h3.291c0.171,0,0.367-0.142,0.588-0.423
		c0.23-0.282,0.341-0.48,0.341-0.592v-0.254v-0.337v-0.34L58.832,27.294L58.832,27.294z"/>
	<path fill="#FFFFFF" d="M27,3.59c0,0.986,0.354,1.833,1.059,2.535C28.761,6.83,29.605,7.18,30.59,7.18
		c0.985,0,1.829-0.35,2.533-1.055c0.705-0.702,1.055-1.563,1.055-2.579c0-0.958-0.351-1.787-1.055-2.491
		C32.421,0.35,31.575,0,30.59,0c-0.985,0-1.829,0.35-2.531,1.056C27.353,1.76,27,2.603,27,3.59z"/>
	<path fill="#FFFFFF" d="M46.589,3.59c0,0.986,0.351,1.833,1.055,2.535c0.703,0.705,1.547,1.055,2.532,1.055
		c0.988,0,1.83-0.35,2.534-1.055c0.702-0.702,1.057-1.549,1.057-2.535c0-0.987-0.355-1.83-1.057-2.534
		C52.006,0.35,51.165,0,50.176,0c-0.985,0-1.83,0.35-2.532,1.056C46.94,1.76,46.589,2.603,46.589,3.59z"/>
	<path fill="#FFFFFF" d="M18.979,27.294l-5.062-14.027c-0.059-0.057-0.089-0.114-0.089-0.168c0-0.285,0.141-0.424,0.423-0.424
		c0.169,0,0.283,0.112,0.338,0.34l3.461,9.042c0.283,0.618,0.903,0.928,1.861,0.928c0.334,0,0.576-0.255,0.714-0.761
		c0.143-0.505,0.209-0.845,0.209-1.013l-3.544-8.706c-0.114-1.071-0.615-1.972-1.522-2.705c-0.9-0.731-1.94-1.097-3.12-1.097H8.172
		c-1.183,0-2.238,0.38-3.166,1.141c-0.93,0.761-1.476,1.647-1.645,2.662l-3.293,8.787c-0.113,0.17-0.086,0.493,0.083,0.973
		c0.17,0.479,0.422,0.719,0.762,0.719c1.07,0,1.688-0.282,1.857-0.846l3.376-9.125c0.056-0.172,0.17-0.255,0.335-0.255
		c0.227,0,0.338,0.113,0.338,0.339v0.083L1.841,27.294v1.1c0,0.113,0.141,0.31,0.422,0.592c0.283,0.281,0.478,0.424,0.588,0.424
		h3.209v10.899c0,0.45,0.185,0.846,0.551,1.183C6.978,41.83,7.385,42,7.832,42c0.453,0,0.849-0.17,1.187-0.508
		c0.337-0.337,0.506-0.732,0.506-1.183V28.985c0-0.055,0.154-0.099,0.464-0.127c0.31-0.03,0.606-0.03,0.888,0
		c0.279,0.029,0.422,0.072,0.422,0.127v11.239c0,0.452,0.169,0.859,0.505,1.225c0.338,0.367,0.744,0.551,1.223,0.551
		c0.477,0,0.89-0.184,1.226-0.551c0.338-0.366,0.507-0.772,0.507-1.225V29.408h3.293c0.17,0,0.368-0.142,0.594-0.423
		c0.224-0.282,0.333-0.48,0.333-0.592v-0.254v-0.337v-0.34v-0.167H18.979z"/>
	<path fill="#FFFFFF" d="M6.738,3.59c0,0.986,0.351,1.833,1.055,2.535C8.495,6.83,9.339,7.18,10.328,7.18
		c0.982,0,1.825-0.35,2.53-1.055c0.705-0.702,1.06-1.549,1.06-2.535c0-0.987-0.354-1.83-1.06-2.534C12.153,0.35,11.31,0,10.328,0
		C9.339,0,8.496,0.35,7.793,1.056C7.089,1.76,6.738,2.603,6.738,3.59z"/>
</g>
</svg>
