<?xml version="1.0" encoding="utf-8"?>
<!-- Generator: Adobe Illustrator 16.0.0, SVG Export Plug-In . SVG Version: 6.00 Build 0)  -->
<!DOCTYPE svg PUBLIC "-//W3C//DTD SVG 1.1//EN" "http://www.w3.org/Graphics/SVG/1.1/DTD/svg11.dtd">
<svg version="1.1" id="Capa_1" xmlns="http://www.w3.org/2000/svg" xmlns:xlink="http://www.w3.org/1999/xlink" x="0px" y="0px"
	 width="28.238px" height="42.612px" viewBox="0 0 28.238 42.612" enable-background="new 0 0 28.238 42.612" xml:space="preserve">
<g>
	<g>
		<path fill="#FFFFFF" d="M16.782,33.735c-0.094,0-0.188-0.015-0.28-0.046l-2.383-0.794l-2.383,0.794
			c-0.271,0.092-0.57,0.044-0.798-0.121c-0.232-0.169-0.37-0.437-0.37-0.722v-1.775c0-0.286,0.137-0.554,0.37-0.721
			c0.229-0.167,0.527-0.215,0.798-0.12l2.383,0.794l2.383-0.794c0.27-0.095,0.568-0.047,0.799,0.12
			c0.232,0.167,0.369,0.435,0.369,0.721v1.775c0,0.287-0.137,0.555-0.369,0.722C17.148,33.677,16.967,33.735,16.782,33.735z"/>
	</g>
	<g>
		<path fill="#FFFFFF" d="M1.604,42.612h25.033c0.296-4.854,1.271-9.708,1.602-11.244l-5.732-2.866
			c-0.402-0.198-0.898-0.068-1.145,0.314l-7.242,11.268L6.876,28.816c-0.247-0.383-0.745-0.513-1.145-0.314L0,31.368
			C0.33,32.904,1.307,37.759,1.604,42.612z"/>
	</g>
	<g>
		<g>
			<path fill="#FFFFFF" d="M14.119,30.184c-4.374,0-8.258-3.532-9.87-8.879c-1.465-0.088-2.558-1.966-2.558-4.438
				c0-0.796,0.118-1.575,0.344-2.249c0.155-0.466,0.657-0.718,1.123-0.561c0.467,0.153,0.717,0.656,0.563,1.121
				c-0.166,0.497-0.254,1.079-0.254,1.688c0,1.719,0.666,2.663,0.887,2.663c0.242-0.148,0.567-0.196,0.831-0.088
				c0.263,0.105,0.487,0.312,0.556,0.587c1.243,5.012,4.61,8.38,8.378,8.38c3.768,0,7.136-3.367,8.379-8.38
				c0.068-0.274,0.264-0.503,0.527-0.608c0.263-0.106,0.562-0.08,0.803,0.069c0.305,0.038,0.944-0.904,0.944-2.621
				c0-0.607-0.087-1.191-0.255-1.688c-0.153-0.465,0.097-0.968,0.562-1.122c0.465-0.156,0.967,0.097,1.121,0.562
				c0.226,0.674,0.345,1.452,0.345,2.249c0,2.474-1.094,4.352-2.559,4.437C22.377,26.651,18.492,30.184,14.119,30.184z"/>
		</g>
	</g>
	<g>
		<path fill="#FFFFFF" d="M14.119,0C7.266,0,1.691,5.575,1.691,12.429c0,0.824,0.101,1.669,0.319,2.662
			c0.088,0.406,0.449,0.697,0.867,0.697c1.004,0,2.219,0.181,2.231,0.183c0.051,0.007,0.098,0.011,0.151,0.009
			c0.485,0.008,0.906-0.39,0.906-0.887c0-0.108-0.02-0.211-0.054-0.306c-0.108-1.772,0.003-3.563,0.25-4.134h0.135
			c3.069,0,4.6-0.975,5.307-2.205c1.914,1.889,5.764,3.711,9.485,3.952c0.211,1.491,0.864,2.976,0.898,3.051
			c0.141,0.322,0.461,0.528,0.809,0.528c0.023,0,0.049,0,0.073-0.002l2.365-0.193c0.389-0.031,0.71-0.313,0.796-0.693
			c0.217-0.993,0.316-1.838,0.316-2.662C26.547,5.575,20.973,0,14.119,0z"/>
	</g>
</g>
</svg>
