<?xml version="1.0" encoding="utf-8"?>
<!-- Generator: Adobe Illustrator 16.0.3, SVG Export Plug-In . SVG Version: 6.00 Build 0)  -->
<!DOCTYPE svg PUBLIC "-//W3C//DTD SVG 1.1//EN" "http://www.w3.org/Graphics/SVG/1.1/DTD/svg11.dtd">
<svg version="1.1" id="Layer_1" xmlns="http://www.w3.org/2000/svg" xmlns:xlink="http://www.w3.org/1999/xlink" x="0px" y="0px"
	 width="41.982px" height="39.001px" viewBox="0 0 41.982 39.001" enable-background="new 0 0 41.982 39.001" xml:space="preserve">
<g>
	<defs>
		<rect id="SVGID_1_" x="-354.5" y="-286.757" width="1024" height="545.51"/>
	</defs>
	<clipPath id="SVGID_2_">
		<use xlink:href="#SVGID_1_"  overflow="visible"/>
	</clipPath>
</g>
<g>
	<path fill="#FFFFFF" stroke="#FFFFFF" stroke-width="2" stroke-miterlimit="10" d="M36.029,38.001H5.951
		c-2.73,0-4.951-2.222-4.951-4.95c0-2.304,1.645-3.458,3.094-4.477c0.303-0.213,0.611-0.429,0.914-0.66l17.467-12.861
		c2.516-1.886,5.119-3.835,5.119-6.557c0-2.919-2.375-5.295-5.295-5.295s-5.297,2.376-5.297,5.295c0,0.608-0.492,1.101-1.1,1.101
		s-1.1-0.492-1.1-1.101C14.803,4.362,18.166,1,22.299,1s7.496,3.362,7.496,7.496c0,3.821-3.189,6.211-6.002,8.317l-0.625,0.47
		L6.33,29.672c-0.311,0.237-0.643,0.472-0.971,0.703c-1.379,0.967-2.158,1.568-2.158,2.676c0,1.517,1.234,2.75,2.75,2.75h30.078
		c1.516,0,2.75-1.234,2.75-2.75c0-1.107-0.781-1.709-2.156-2.676c-0.33-0.231-0.662-0.466-0.99-0.717l-10.887-8.214
		c-0.486-0.365-0.582-1.055-0.215-1.54s1.055-0.585,1.541-0.216l10.895,8.218c0.309,0.238,0.619,0.454,0.92,0.668
		c1.451,1.018,3.096,2.172,3.096,4.476C40.982,35.779,38.762,38.001,36.029,38.001L36.029,38.001z"/>
</g>
</svg>
