<?xml version="1.0" encoding="utf-8"?>
<!-- Generator: Adobe Illustrator 16.0.0, SVG Export Plug-In . SVG Version: 6.00 Build 0)  -->
<!DOCTYPE svg PUBLIC "-//W3C//DTD SVG 1.1//EN" "http://www.w3.org/Graphics/SVG/1.1/DTD/svg11.dtd">
<svg version="1.1" id="Capa_1" xmlns="http://www.w3.org/2000/svg" xmlns:xlink="http://www.w3.org/1999/xlink" x="0px" y="0px"
	 width="42.142px" height="42.3px" viewBox="0 0 42.142 42.3" enable-background="new 0 0 42.142 42.3" xml:space="preserve">
<g>
	<g>
		<circle fill="#FFFFFF" cx="31.897" cy="10.192" r="3.01"/>
		<circle fill="#FFFFFF" cx="31.897" cy="17.532" r="3.01"/>
		<circle fill="#FFFFFF" cx="31.897" cy="24.767" r="3.01"/>
		<circle fill="#FFFFFF" cx="31.897" cy="31.95" r="3.01"/>
		<circle fill="#FFFFFF" cx="39.131" cy="17.532" r="3.01"/>
		<circle fill="#FFFFFF" cx="39.131" cy="24.767" r="3.01"/>
		<circle fill="#FFFFFF" cx="17.533" cy="3.01" r="3.01"/>
		<circle fill="#FFFFFF" cx="17.533" cy="10.192" r="3.01"/>
		<circle fill="#FFFFFF" cx="17.533" cy="31.95" r="3.01"/>
		<circle fill="#FFFFFF" cx="17.533" cy="39.29" r="3.01"/>
		<circle fill="#FFFFFF" cx="24.714" cy="3.01" r="3.01"/>
		<circle fill="#FFFFFF" cx="24.714" cy="10.192" r="3.01"/>
		<circle fill="#FFFFFF" cx="24.714" cy="31.95" r="3.01"/>
		<circle fill="#FFFFFF" cx="24.714" cy="39.29" r="3.01"/>
		<circle fill="#FFFFFF" cx="3.01" cy="17.532" r="3.01"/>
		<circle fill="#FFFFFF" cx="3.01" cy="24.767" r="3.01"/>
		<circle fill="#FFFFFF" cx="10.192" cy="10.192" r="3.01"/>
		<circle fill="#FFFFFF" cx="10.192" cy="17.532" r="3.01"/>
		<circle fill="#FFFFFF" cx="10.192" cy="24.767" r="3.01"/>
		<circle fill="#FFFFFF" cx="10.192" cy="31.95" r="3.01"/>
	</g>
</g>
</svg>
