<?xml version="1.0" encoding="utf-8"?>
<!-- Generator: Adobe Illustrator 17.0.0, SVG Export Plug-In . SVG Version: 6.00 Build 0)  -->
<!DOCTYPE svg PUBLIC "-//W3C//DTD SVG 1.1//EN" "http://www.w3.org/Graphics/SVG/1.1/DTD/svg11.dtd">
<svg version="1.1" id="Layer_1" xmlns="http://www.w3.org/2000/svg" xmlns:xlink="http://www.w3.org/1999/xlink" x="0px" y="0px"
	 width="55.512px" height="36.508px" viewBox="0 0 55.512 36.508" enable-background="new 0 0 55.512 36.508" xml:space="preserve">
<g>
	<path fill="#FFFFFF" d="M44.738,15.857l-2.78-2.055h-0.028V8.67h-0.002l-8.91-8.719l-0.004,0.004H15.991v13.859l-2.801,2.117
		v10.972v0.625h0.625h2.177v8.776h25.939v-8.776h2.177h0.625v-0.625v-2.996L44.738,15.857z M22.35,24.587v-5.115h1.728
		c0.35,0,0.653,0.042,0.908,0.124c0.255,0.083,0.465,0.197,0.629,0.344c0.164,0.147,0.286,0.322,0.365,0.524
		c0.079,0.202,0.118,0.422,0.118,0.659c0,0.251-0.041,0.482-0.124,0.691c-0.082,0.209-0.207,0.389-0.374,0.539
		c-0.167,0.15-0.377,0.267-0.631,0.35c-0.254,0.084-0.551,0.126-0.892,0.126h-0.67v1.759L22.35,24.587L22.35,24.587z M27.006,24.587
		v-5.115h1.967c0.392,0,0.75,0.064,1.072,0.191c0.322,0.127,0.598,0.304,0.827,0.531c0.229,0.227,0.407,0.496,0.532,0.809
		c0.126,0.312,0.189,0.654,0.189,1.026c0,0.373-0.063,0.717-0.189,1.031c-0.126,0.314-0.303,0.584-0.532,0.809
		c-0.229,0.226-0.505,0.401-0.827,0.529c-0.322,0.127-0.679,0.19-1.072,0.19L27.006,24.587L27.006,24.587z M35.863,20.3H33.67v1.414
		h1.841v0.832H33.67v2.041h-1.064v-5.115h3.257V20.3z M31.765,1.205l-0.009,8.703l8.924,0.01v5.945H17.239V1.205H31.765z
		 M40.68,35.055H17.239v-7.527H40.68L40.68,35.055L40.68,35.055z"/>
	<path fill="#FFFFFF" d="M30.4,22.754c0.071-0.213,0.106-0.456,0.106-0.726c0-0.268-0.035-0.509-0.106-0.723
		c-0.07-0.213-0.171-0.395-0.303-0.543c-0.132-0.148-0.292-0.262-0.481-0.342c-0.189-0.08-0.403-0.12-0.643-0.12H28.07v3.458h0.902
		c0.24,0,0.454-0.039,0.643-0.118c0.189-0.078,0.35-0.192,0.481-0.342C30.229,23.149,30.33,22.968,30.4,22.754z"/>
	<path fill="#FFFFFF" d="M24.806,21.777c0.154-0.16,0.231-0.378,0.231-0.655c0-0.127-0.019-0.243-0.058-0.347
		c-0.039-0.105-0.098-0.194-0.177-0.268c-0.079-0.074-0.178-0.131-0.298-0.171c-0.12-0.04-0.262-0.06-0.427-0.06h-0.67v1.742h0.67
		C24.409,22.017,24.652,21.937,24.806,21.777z"/>
</g>
</svg>
