<?xml version="1.0" encoding="utf-8"?>
<!-- Generator: Adobe Illustrator 17.0.0, SVG Export Plug-In . SVG Version: 6.00 Build 0)  -->
<!DOCTYPE svg PUBLIC "-//W3C//DTD SVG 1.1//EN" "http://www.w3.org/Graphics/SVG/1.1/DTD/svg11.dtd">
<svg version="1.1" id="Layer_1" xmlns="http://www.w3.org/2000/svg" xmlns:xlink="http://www.w3.org/1999/xlink" x="0px" y="0px"
	 width="55.512px" height="36.509px" viewBox="0 0 55.512 36.509" enable-background="new 0 0 55.512 36.509" xml:space="preserve">
<path fill="#FFFFFF" d="M26.526,0.147c-1.858,0-3.371,1.5-3.371,3.358c0,1.858,1.513,3.371,3.371,3.371
	c1.858,0,3.358-1.513,3.358-3.371S28.384,0.147,26.526,0.147z M26.766,7.697c-1.981,0.004-2.336,1.252-2.336,2.273v12.02
	c0,1.032,0.837,1.86,1.869,1.856l8.51-0.038c0,0,2.947,4.445,4.419,6.666c0.441,0.665,1.021,1.263,1.869,1.263
	c1.118,0,2.154-0.921,2.033-2.033c-0.048-0.436-0.154-0.857-0.417-1.25c-1.311-1.956-3.913-6.177-5.341-7.765
	c-0.362-0.403-0.864-0.697-1.452-0.694l-7.045,0.025v-7.474l5.025,3.472c0.725,0.5,1.709,0.321,2.21-0.404
	c0.5-0.725,0.321-1.709-0.404-2.21c0,0-5.235-3.61-7.853-5.416C27.58,7.8,27.072,7.696,26.766,7.697z M23.534,14.351
	c-4.607,1.385-8.017,5.67-8.017,10.833c0,6.302,5.094,11.325,11.224,11.325c4.697,0,8.785-2.947,10.442-7.159l-1.679-2.538
	c-0.765,4.044-4.346,7.159-8.762,7.159c-4.99,0-8.901-3.988-8.901-8.788c0-3.702,2.338-6.917,5.694-8.194V14.351z"/>
</svg>
