<?xml version="1.0" encoding="utf-8"?>
<!-- Generator: Adobe Illustrator 16.0.3, SVG Export Plug-In . SVG Version: 6.00 Build 0)  -->
<!DOCTYPE svg PUBLIC "-//W3C//DTD SVG 1.1//EN" "http://www.w3.org/Graphics/SVG/1.1/DTD/svg11.dtd">
<svg version="1.1" id="Layer_1" xmlns="http://www.w3.org/2000/svg" xmlns:xlink="http://www.w3.org/1999/xlink" x="0px" y="0px"
	 width="40.589px" height="42px" viewBox="0 0 40.589 42" enable-background="new 0 0 40.589 42" xml:space="preserve">
<g>
	<defs>
		<rect id="SVGID_1_" x="-896.208" y="-284.241" width="1024" height="545.51"/>
	</defs>
	<clipPath id="SVGID_2_">
		<use xlink:href="#SVGID_1_"  overflow="visible"/>
	</clipPath>
</g>
<g>
	<path fill="#FFFFFF" d="M22.843,18.652c-0.381-0.712-1.269-0.979-1.979-0.596c-0.713,0.382-0.979,1.27-0.596,1.981
		c0.065,0.121,0.147,0.224,0.24,0.317c0.442,0.46,1.152,0.596,1.742,0.277c0.59-0.317,0.867-0.982,0.728-1.605
		C22.947,18.899,22.911,18.773,22.843,18.652z"/>
	<path fill="#FFFFFF" d="M2.712,20.41c-0.231-0.433-0.771-0.595-1.203-0.362l-1.041,0.561c-0.433,0.231-0.594,0.771-0.363,1.202
		l3.783,7.033c0.231,0.433,0.771,0.595,1.203,0.362l1.041-0.561c0.433-0.231,0.594-0.77,0.361-1.201L2.712,20.41z"/>
	<path fill="#FFFFFF" d="M25.107,38.591c0.432-0.231,0.594-0.77,0.362-1.202l-0.867-15.653l15.518-8.344
		c0.433-0.231,0.594-0.771,0.363-1.202L34.179,0.468c-0.231-0.433-0.771-0.594-1.201-0.362L2.497,16.496
		c-0.433,0.231-0.594,0.77-0.361,1.202L8.438,29.42c0.233,0.434,0.771,0.595,1.203,0.362l12.228-6.574l0.869,15.653
		c0.229,0.433,0.769,0.595,1.201,0.361L25.107,38.591z M23.017,20.633c-0.59,0.318-1.297,0.184-1.742-0.276
		c-0.09-0.095-0.174-0.197-0.24-0.317c-0.381-0.712-0.115-1.6,0.596-1.981c0.713-0.384,1.598-0.117,1.981,0.595
		c0.065,0.121,0.104,0.247,0.133,0.376C23.886,19.651,23.609,20.315,23.017,20.633z"/>
	<path fill="#FFFFFF" d="M37.73,37.776H27.437c-0.371,0-0.672,0.397-0.672,0.888v1.332c0,0.488,0.301,0.886,0.672,0.886H37.73
		c0.371,0,0.672-0.397,0.672-0.886v-1.332C38.402,38.174,38.101,37.776,37.73,37.776z"/>
	<circle fill="#FFFFFF" cx="25.138" cy="39.329" r="2.671"/>
</g>
</svg>
