<?xml version="1.0" encoding="utf-8"?>
<!-- Generator: Adobe Illustrator 17.0.0, SVG Export Plug-In . SVG Version: 6.00 Build 0)  -->
<!DOCTYPE svg PUBLIC "-//W3C//DTD SVG 1.1//EN" "http://www.w3.org/Graphics/SVG/1.1/DTD/svg11.dtd">
<svg version="1.1" id="Layer_1" xmlns="http://www.w3.org/2000/svg" xmlns:xlink="http://www.w3.org/1999/xlink" x="0px" y="0px"
	 width="55.512px" height="36.508px" viewBox="0 0 55.512 36.508" enable-background="new 0 0 55.512 36.508" xml:space="preserve">
<g>
	<path fill="#FFFFFF" d="M46.668,24.052c0,0-5.243,12.538-18.237,12.538S10.194,24.052,10.194,24.052s9.346,2.28,18.009,2.28
		S46.668,24.052,46.668,24.052z"/>
	<path fill="#FFFFFF" d="M49.631,10.374c-9.574-2.963-17.097-10.258-21.2-10.258s-11.626,7.295-21.2,10.258
		c-1.596,0.456-2.28,2.28-1.368,3.647c2.052,2.735,4.331,2.963,4.331,6.155c0,0,9.118,2.28,18.237,2.28s18.237-2.28,18.237-2.28
		c0-3.191,2.28-3.419,4.103-6.383C51.683,12.654,50.999,10.83,49.631,10.374z M28.431,18.353c-2.508,0-4.559-4.331-4.559-6.839
		c0,0,2.052-2.28,4.559-2.28s4.559,2.28,4.559,2.28C32.99,14.022,30.938,18.353,28.431,18.353z"/>
</g>
</svg>
