<?xml version="1.0" encoding="utf-8"?>
<!-- Generator: Adobe Illustrator 16.0.0, SVG Export Plug-In . SVG Version: 6.00 Build 0)  -->
<!DOCTYPE svg PUBLIC "-//W3C//DTD SVG 1.1//EN" "http://www.w3.org/Graphics/SVG/1.1/DTD/svg11.dtd">
<svg version="1.1" id="Capa_1" xmlns="http://www.w3.org/2000/svg" xmlns:xlink="http://www.w3.org/1999/xlink" x="0px" y="0px"
	 width="31.692px" height="42.253px" viewBox="0 0 31.692 42.253" enable-background="new 0 0 31.692 42.253" xml:space="preserve">
<g>
	<g>
		<path fill="#FFFFFF" d="M18.453,33.45c-0.094,0-0.188-0.014-0.279-0.046l-2.362-0.787l-2.363,0.787
			c-0.27,0.092-0.565,0.044-0.792-0.12c-0.231-0.165-0.366-0.432-0.366-0.715v-1.76c0-0.284,0.135-0.55,0.366-0.715
			c0.227-0.166,0.522-0.213,0.792-0.12l2.363,0.787l2.362-0.787c0.268-0.093,0.564-0.046,0.793,0.12
			c0.23,0.165,0.366,0.431,0.366,0.715v1.76c0,0.283-0.136,0.55-0.366,0.715C18.814,33.394,18.634,33.45,18.453,33.45z"/>
	</g>
	<g>
		<path fill="#FFFFFF" d="M3.4,42.253h24.824c0.293-4.813,1.26-9.627,1.588-11.149l-5.684-2.842c-0.4-0.197-0.891-0.069-1.136,0.312
			l-7.182,11.173L8.629,28.573c-0.245-0.381-0.74-0.509-1.136-0.312l-5.683,2.842C2.138,32.628,3.106,37.441,3.4,42.253z"/>
	</g>
	<g>
		<path fill="#FFFFFF" d="M15.846,29.931c-4.336,0-8.187-3.504-9.787-8.805c-1.455-0.085-2.537-1.947-2.537-4.4
			c0-0.789,0.118-1.56,0.339-2.23c0.152-0.461,0.652-0.711,1.113-0.559c0.463,0.154,0.711,0.652,0.558,1.113
			c-0.164,0.494-0.25,1.074-0.25,1.676c0,1.705,0.662,2.641,0.881,2.641c0.241-0.149,0.563-0.193,0.824-0.09
			c0.26,0.107,0.484,0.311,0.551,0.586c1.23,4.97,4.57,8.308,8.308,8.308c3.737,0,7.077-3.338,8.308-8.308
			c0.068-0.275,0.264-0.499,0.525-0.604c0.262-0.106,0.559-0.079,0.796,0.07c0.31,0.062,0.935-0.892,0.935-2.601
			c0-0.602-0.086-1.182-0.252-1.674c-0.152-0.462,0.098-0.96,0.559-1.113c0.457-0.153,0.961,0.098,1.113,0.559
			c0.221,0.667,0.341,1.438,0.341,2.227c0,2.453-1.083,4.315-2.536,4.4C24.033,26.427,20.183,29.931,15.846,29.931z"/>
	</g>
	<path fill="#FFFFFF" d="M15.846,0C9.052,0,3.522,5.528,3.522,12.324c0,0.815,0.1,1.653,0.317,2.638
		c0.054,0.252,0.218,0.468,0.445,0.588c0.229,0.121,0.502,0.135,0.738,0.041c0.257-0.103,5.528-2.244,6.951-6.999
		c2.749,3.009,9.07,7.06,15.022,7.06c0.413,0,0.771-0.288,0.858-0.691c0.217-0.982,0.317-1.82,0.317-2.636
		C28.17,5.528,22.64,0,15.846,0z"/>
	<g>
		<path fill="#FFFFFF" d="M5.282,19.073v-6.749c0-0.485-0.394-0.88-0.88-0.88c-0.486,0-0.88,0.395-0.88,0.88
			c0,2.843-1.58,9.138-3.264,10.821c-0.344,0.343-0.344,0.901,0,1.244c1.945,1.947,8.57,2.801,9.319,2.893
			c0.037,0.006,0.072,0.008,0.107,0.008c0.312,0,0.604-0.166,0.762-0.44c0.178-0.305,0.155-0.687-0.057-0.969L5.282,19.073z"/>
		<path fill="#FFFFFF" d="M31.433,23.146c-1.684-1.684-3.263-7.979-3.263-10.821c0-0.485-0.394-0.88-0.88-0.88
			s-0.881,0.395-0.881,0.88v6.749l-5.105,6.808c-0.211,0.282-0.234,0.662-0.057,0.969c0.158,0.274,0.451,0.44,0.763,0.44
			c0.035,0,0.07-0.002,0.107-0.006c0.749-0.092,7.374-0.945,9.319-2.893C31.779,24.047,31.779,23.49,31.433,23.146z"/>
	</g>
</g>
</svg>
