<?xml version="1.0" encoding="utf-8"?>
<!-- Generator: Adobe Illustrator 16.0.3, SVG Export Plug-In . SVG Version: 6.00 Build 0)  -->
<!DOCTYPE svg PUBLIC "-//W3C//DTD SVG 1.1//EN" "http://www.w3.org/Graphics/SVG/1.1/DTD/svg11.dtd">
<svg version="1.1" id="Layer_1" xmlns="http://www.w3.org/2000/svg" xmlns:xlink="http://www.w3.org/1999/xlink" x="0px" y="0px"
	 width="40.242px" height="39.645px" viewBox="0 0 40.242 39.645" enable-background="new 0 0 40.242 39.645" xml:space="preserve">
<g>
	<defs>
		<rect id="SVGID_1_" x="-773.432" y="-285.495" width="1024" height="545.51"/>
	</defs>
	<clipPath id="SVGID_2_">
		<use xlink:href="#SVGID_1_"  overflow="visible"/>
	</clipPath>
</g>
<g>
	<path fill="#FFFFFF" d="M12.764,7.085c0.777,0.596,1.326,1.006,2.287,0.961c0.045,0.274,0.137,0.548,0.273,0.868
		c0.275,0.594,0.365,1.646,0.961,1.967c0.639,0.411,1.234-0.274,1.645-0.777c0.412-0.503,0.777-0.915,0.961-1.418c0,0,0,0,0.047,0
		c0.592,0.047,1.461,0.366,2.012-0.092c0.639-0.503,0.41-1.325,0.182-1.919c-0.137-0.503-0.32-0.961-0.504-1.372
		c0.184-0.273,0.322-0.549,0.457-0.915c0.275-0.639,0.824-1.462,0.641-2.193c-0.182-0.823-0.961-0.777-1.555-0.777
		c-0.777,0.046-1.324,0.046-1.873,0.411c-0.139-0.273-0.412-0.457-0.596-0.64C17.199,0.777,16.65,0,15.965,0
		c-0.777,0.046-0.961,0.914-1.098,1.555c-0.137,0.73-0.32,1.325-0.184,1.92c-0.32,0.091-0.594,0.274-0.914,0.457
		c-0.502,0.365-1.418,0.64-1.691,1.371C11.668,6.217,12.307,6.675,12.764,7.085z M16.422,5.12c0.092-0.458,0.502-0.732,0.914-0.64
		c0.412,0.091,0.641,0.549,0.549,1.005c-0.092,0.457-0.504,0.731-0.914,0.641C16.514,6.034,16.33,5.577,16.422,5.12z"/>
	<path fill="#FFFFFF" d="M21.543,4.708c-0.412,0.777,0.137,1.326,0.547,1.829c0.641,0.731,1.098,1.234,2.104,1.326
		c0,0.274,0.047,0.548,0.092,0.869c0.137,0.639,0.092,1.691,0.594,2.148c0.594,0.502,1.234-0.047,1.738-0.457
		c0.502-0.412,0.867-0.778,1.188-1.235c0,0,0,0,0.047,0c0.594,0.138,1.416,0.595,2.01,0.274c0.732-0.365,0.596-1.234,0.504-1.875
		c-0.045-0.548-0.137-1.006-0.318-1.416c0.182-0.184,0.41-0.504,0.592-0.823c0.367-0.595,1.008-1.326,0.961-2.012
		c-0.045-0.823-0.867-0.914-1.463-1.006c-0.73-0.091-1.326-0.137-1.92,0.046c-0.092-0.273-0.32-0.502-0.504-0.777
		c-0.41-0.458-0.867-1.371-1.508-1.417c-0.777-0.092-1.051,0.731-1.371,1.325c-0.32,0.732-0.504,1.28-0.504,1.875
		c-0.32,0.046-0.594,0.137-0.959,0.32C22.822,3.932,21.908,4.114,21.543,4.708z M25.977,5.211c0.184-0.41,0.594-0.594,1.006-0.457
		c0.412,0.138,0.549,0.641,0.365,1.053c-0.137,0.41-0.594,0.594-1.006,0.456C25.932,6.126,25.84,5.668,25.977,5.211z"/>
	<path fill="#FFFFFF" d="M27.668,12.389c0-0.822-0.777-1.006-1.371-1.097c-0.732-0.137-1.326-0.274-1.92-0.046
		c-0.092-0.274-0.273-0.503-0.457-0.777c-0.367-0.503-0.777-1.417-1.418-1.555c-0.777-0.137-1.098,0.594-1.418,1.235
		c-0.32,0.64-0.547,1.233-0.639,1.828c-0.32,0-0.594,0.092-0.961,0.273c-0.594,0.185-1.508,0.321-1.92,0.915
		c-0.457,0.731,0.045,1.326,0.457,1.829c0.594,0.776,1.053,1.325,1.967,1.463c0,0.274,0,0.549,0.045,0.868
		c0.092,0.64,0,1.691,0.457,2.195c0.549,0.548,1.234,0.045,1.783-0.366c0.504-0.366,0.914-0.731,1.279-1.097c0,0,0,0,0.047,0
		c0.594,0.183,1.371,0.73,1.965,0.41c0.732-0.319,0.641-1.188,0.596-1.828c-0.047-0.549-0.047-1.006-0.184-1.463
		c0.275-0.183,0.457-0.457,0.641-0.777C26.891,13.807,27.668,13.12,27.668,12.389z M23.188,14.675
		c-0.184,0.411-0.639,0.594-1.006,0.411c-0.365-0.183-0.502-0.73-0.32-1.097c0.184-0.411,0.641-0.595,1.006-0.411
		C23.234,13.76,23.371,14.218,23.188,14.675z"/>
	<path fill="#FFFFFF" d="M30.457,10.606c-0.549,0.274-1.51,0.411-1.875,1.052c-0.41,0.777,0.137,1.326,0.549,1.828
		c0.641,0.731,1.098,1.234,2.104,1.326c0,0.273,0.045,0.549,0.092,0.868c0.137,0.64,0.09,1.691,0.594,2.148
		c0.594,0.503,1.234-0.045,1.738-0.457c0.502-0.411,0.867-0.777,1.188-1.233c0,0,0,0,0.045,0c0.596,0.137,1.418,0.594,2.014,0.273
		c0.73-0.366,0.594-1.234,0.502-1.875c-0.045-0.548-0.137-1.005-0.32-1.417c0.184-0.183,0.412-0.503,0.594-0.822
		c0.365-0.595,1.006-1.326,0.961-2.012c-0.047-0.823-0.869-0.915-1.463-1.005c-0.732-0.093-1.326-0.138-1.92,0.045
		c-0.092-0.274-0.32-0.503-0.504-0.777c-0.41-0.458-0.869-1.371-1.508-1.417c-0.777-0.092-1.051,0.731-1.373,1.325
		c-0.318,0.731-0.502,1.28-0.502,1.875C31.098,10.286,30.777,10.377,30.457,10.606z M33.018,12.114
		c0.137-0.411,0.594-0.595,1.006-0.456c0.41,0.137,0.547,0.64,0.365,1.051s-0.594,0.595-1.006,0.457
		C33.018,13.029,32.834,12.572,33.018,12.114z"/>
	<path fill="#FFFFFF" d="M10.479,22.768c0.273,0.776,1.051,0.64,1.691,0.549c0.594-0.093,1.098-0.138,1.555-0.412
		c0,0,0,0,0.045,0.045c0.457,0.458,0.914,1.28,1.555,1.372c0.777,0.046,1.098-0.731,1.371-1.372
		c0.184-0.502,0.412-0.959,0.457-1.416c0.32-0.047,0.596-0.184,0.916-0.412c0.547-0.32,1.508-0.549,1.828-1.234
		c0.365-0.777-0.275-1.28-0.732-1.692c-0.549-0.503-1.006-0.868-1.691-1.005c0-0.32,0-0.595-0.045-0.914
		c-0.092-0.641-0.047-1.646-0.549-2.104c-0.594-0.503-1.279,0-1.783,0.412c-0.549,0.456-1.006,0.822-1.371,1.326
		c-0.275-0.139-0.594-0.184-0.961-0.275c-0.594-0.092-1.463-0.457-2.148-0.092c-0.73,0.412-0.549,1.234-0.412,1.875
		c0.184,0.96,0.367,1.691,1.098,2.285c-0.137,0.275-0.273,0.504-0.365,0.824C10.844,21.259,10.295,22.127,10.479,22.768z
		 M14.182,18.516c0.365-0.274,0.869-0.184,1.051,0.137c0.275,0.365,0.137,0.869-0.182,1.097c-0.367,0.274-0.869,0.184-1.053-0.137
		C13.725,19.292,13.816,18.789,14.182,18.516z"/>
	<path fill="#FFFFFF" d="M28.172,22.081c-0.047-0.822-0.869-0.914-1.51-0.96c-0.594-0.092-1.098-0.137-1.646-0.046c0,0,0,0,0-0.046
		c-0.318-0.549-0.549-1.463-1.234-1.737c-0.73-0.274-1.232,0.411-1.645,0.961c-0.32,0.457-0.594,0.822-0.777,1.233
		c-0.32,0-0.596,0.047-0.961,0.137c-0.594,0.139-1.646,0.139-2.102,0.731c-0.504,0.641-0.047,1.327,0.318,1.83
		c0.459,0.594,0.824,1.097,1.373,1.417c-0.092,0.273-0.137,0.594-0.137,0.914c-0.047,0.64-0.367,1.646,0.045,2.194
		c0.457,0.594,1.234,0.32,1.828,0.046c0.641-0.274,1.189-0.503,1.646-0.914c0.273,0.183,0.502,0.365,0.869,0.503
		c0.547,0.274,1.324,0.869,2.012,0.64c0.777-0.184,0.822-1.052,0.867-1.737c0.047-1.005,0.047-1.737-0.502-2.56
		c0.182-0.184,0.365-0.412,0.502-0.732C27.439,23.498,28.217,22.768,28.172,22.081z M23.553,25.281c-0.41,0.137-0.867,0-1.004-0.412
		c-0.139-0.41,0.045-0.868,0.455-1.051c0.412-0.137,0.869,0,1.006,0.411C24.193,24.596,24.01,25.145,23.553,25.281z"/>
	<path fill="#FFFFFF" d="M25.016,33.19c-0.594-0.411-1.096-0.731-1.781-0.777c0-0.319-0.092-0.594-0.184-0.914
		c-0.184-0.595-0.273-1.646-0.822-1.966c-0.641-0.412-1.279,0.183-1.738,0.64c-0.502,0.503-0.914,0.915-1.234,1.464
		c-0.318-0.092-0.594-0.138-1.006-0.138c-0.594,0-1.508-0.274-2.148,0.183c-0.641,0.503-0.412,1.28-0.182,1.875
		c0.318,0.96,0.547,1.646,1.371,2.147c-0.092,0.274-0.184,0.549-0.275,0.87c-0.137,0.64-0.549,1.554-0.273,2.239
		c0.365,0.731,1.096,0.503,1.783,0.32c0.594-0.138,1.096-0.32,1.508-0.595c0,0,0,0,0.045,0c0.504,0.412,1.053,1.189,1.738,1.098
		c0.777-0.046,1.006-0.869,1.188-1.509c0.139-0.549,0.275-1.006,0.32-1.463c0.32-0.091,0.549-0.319,0.869-0.503
		c0.549-0.412,1.463-0.777,1.691-1.463C26.16,34.014,25.52,33.557,25.016,33.19z M20.994,35.294c-0.32,0.319-0.824,0.319-1.098,0
		c-0.32-0.32-0.275-0.823,0.092-1.189c0.318-0.319,0.822-0.319,1.096,0C21.359,34.425,21.359,34.974,20.994,35.294z"/>
	<path fill="#FFFFFF" d="M33.748,28.619c-0.73-0.092-1.326-0.138-1.92,0.045c-0.092-0.273-0.32-0.502-0.502-0.777
		c-0.412-0.457-0.869-1.371-1.51-1.417c-0.777-0.091-1.051,0.731-1.371,1.325c-0.32,0.732-0.504,1.28-0.504,1.875
		c-0.318,0.046-0.594,0.137-0.959,0.32c-0.549,0.274-1.51,0.411-1.875,1.052c-0.41,0.777,0.139,1.326,0.549,1.829
		c0.641,0.73,1.098,1.233,2.104,1.325c0,0.274,0.045,0.549,0.092,0.868c0.137,0.64,0.09,1.691,0.594,2.149
		c0.594,0.503,1.234-0.046,1.738-0.458c0.502-0.41,0.869-0.777,1.188-1.233c0,0,0,0,0.045,0c0.596,0.137,1.418,0.594,2.012,0.274
		c0.732-0.366,0.596-1.234,0.504-1.875c-0.047-0.549-0.137-1.005-0.32-1.417c0.184-0.183,0.412-0.504,0.596-0.823
		c0.363-0.594,1.004-1.325,0.959-2.012C35.166,28.848,34.344,28.71,33.748,28.619z M30.914,32.23
		c-0.184,0.412-0.594,0.594-1.006,0.457c-0.365-0.137-0.549-0.641-0.365-1.051c0.137-0.412,0.594-0.595,1.006-0.458
		C30.959,31.316,31.053,31.773,30.914,32.23z"/>
	<path fill="#FFFFFF" d="M40.24,20.572c-0.045-0.823-0.869-0.914-1.463-1.006c-0.732-0.092-1.326-0.137-1.92,0.046
		c-0.092-0.274-0.32-0.503-0.502-0.776c-0.412-0.458-0.869-1.373-1.51-1.418c-0.777-0.092-1.051,0.731-1.371,1.325
		c-0.32,0.731-0.504,1.28-0.504,1.874c-0.318,0.047-0.594,0.138-0.959,0.321c-0.549,0.274-1.51,0.411-1.875,1.052
		c-0.412,0.777,0.137,1.326,0.549,1.828c0.641,0.731,1.098,1.234,2.104,1.326c0,0.273,0.045,0.549,0.092,0.868
		c0.137,0.64,0.09,1.691,0.594,2.149c0.594,0.502,1.234-0.046,1.736-0.458c0.502-0.411,0.869-0.777,1.189-1.234c0,0,0,0,0.045,0
		c0.594,0.138,1.418,0.595,2.012,0.274c0.732-0.365,0.594-1.234,0.504-1.875c-0.047-0.548-0.139-1.005-0.32-1.416
		c0.182-0.184,0.41-0.504,0.594-0.824C39.6,22.035,40.287,21.304,40.24,20.572z M35.943,23.133
		c-0.137,0.411-0.594,0.594-1.006,0.457c-0.367-0.137-0.549-0.641-0.367-1.051c0.184-0.412,0.596-0.596,1.006-0.458
		C35.943,22.218,36.08,22.676,35.943,23.133z"/>
	<path fill="#FFFFFF" d="M7.096,13.486c0,0.273,0.045,0.549,0.092,0.869c0.137,0.64,0.09,1.69,0.594,2.148
		c0.594,0.503,1.234-0.046,1.738-0.458c0.502-0.411,0.867-0.777,1.188-1.233c0,0,0,0,0.045,0c0.596,0.137,1.418,0.594,2.012,0.273
		c0.732-0.365,0.594-1.234,0.504-1.874c-0.047-0.549-0.137-1.005-0.32-1.417c0.184-0.184,0.41-0.503,0.594-0.823
		c0.365-0.595,1.006-1.326,0.959-2.012c-0.045-0.822-0.867-0.914-1.461-1.006C12.307,7.863,11.713,7.817,11.119,8
		c-0.092-0.274-0.32-0.503-0.504-0.777c-0.412-0.457-0.869-1.371-1.508-1.416C8.33,5.714,8.055,6.537,7.736,7.132
		c-0.32,0.731-0.504,1.279-0.504,1.874c-0.32,0.046-0.594,0.138-0.961,0.32c-0.549,0.274-1.508,0.411-1.873,1.051
		c-0.412,0.778,0.137,1.326,0.549,1.83C5.633,12.892,6.09,13.395,7.096,13.486z M8.834,10.834c0.135-0.41,0.594-0.595,1.004-0.457
		c0.365,0.137,0.549,0.641,0.365,1.053c-0.182,0.41-0.594,0.594-1.006,0.457C8.834,11.749,8.695,11.292,8.834,10.834z"/>
	<path fill="#FFFFFF" d="M6.5,25.053c0.596,0.138,1.418,0.594,2.012,0.274c0.732-0.366,0.596-1.234,0.504-1.874
		c-0.047-0.549-0.137-1.006-0.32-1.418c0.184-0.183,0.412-0.502,0.594-0.822c0.365-0.596,1.006-1.326,0.961-2.012
		c-0.047-0.823-0.869-0.914-1.463-1.007c-0.732-0.091-1.326-0.136-1.92,0.047c-0.092-0.275-0.32-0.503-0.504-0.778
		c-0.41-0.456-0.869-1.371-1.508-1.417c-0.777-0.091-1.053,0.731-1.371,1.326c-0.32,0.731-0.504,1.28-0.504,1.875
		c-0.32,0.045-0.594,0.138-0.959,0.319c-0.549,0.274-1.51,0.412-1.875,1.051c-0.412,0.778,0.137,1.326,0.547,1.83
		c0.643,0.731,1.098,1.234,2.104,1.325c0,0.274,0.047,0.549,0.094,0.869c0.137,0.64,0.09,1.691,0.594,2.148
		c0.594,0.503,1.234-0.046,1.736-0.457C5.816,25.83,6.227,25.51,6.5,25.053L6.5,25.053z M6.043,21.715
		c-0.182,0.412-0.594,0.596-1.004,0.458c-0.367-0.138-0.549-0.64-0.367-1.052c0.184-0.411,0.596-0.594,1.006-0.457
		C6.043,20.801,6.227,21.259,6.043,21.715z"/>
	<path fill="#FFFFFF" d="M15.143,30.494c0.182-0.184,0.41-0.504,0.594-0.824c0.365-0.595,1.006-1.325,0.959-2.012
		c-0.045-0.822-0.869-0.914-1.463-1.006c-0.732-0.091-1.326-0.137-1.92,0.046c-0.092-0.274-0.318-0.503-0.502-0.777
		c-0.412-0.456-0.869-1.371-1.51-1.417c-0.777-0.091-1.051,0.732-1.371,1.326c-0.32,0.731-0.502,1.28-0.502,1.874
		c-0.32,0.046-0.594,0.138-0.961,0.32c-0.549,0.273-1.508,0.411-1.875,1.051c-0.41,0.777,0.137,1.326,0.549,1.829
		c0.641,0.732,1.098,1.234,2.104,1.326c0,0.274,0.045,0.549,0.092,0.869c0.137,0.639,0.092,1.691,0.594,2.148
		c0.594,0.502,1.234-0.046,1.738-0.457c0.502-0.412,0.867-0.777,1.188-1.234c0,0,0,0,0.045,0c0.596,0.137,1.418,0.594,2.012,0.273
		c0.732-0.365,0.596-1.234,0.504-1.874C15.416,31.362,15.324,30.904,15.143,30.494z M12.398,30.219
		c-0.184,0.412-0.594,0.594-1.006,0.457c-0.365-0.137-0.549-0.64-0.365-1.051c0.182-0.411,0.594-0.595,1.006-0.457
		C12.445,29.304,12.627,29.762,12.398,30.219z"/>
</g>
</svg>
