<?xml version="1.0" encoding="utf-8"?>
<!-- Generator: Adobe Illustrator 16.0.3, SVG Export Plug-In . SVG Version: 6.00 Build 0)  -->
<!DOCTYPE svg PUBLIC "-//W3C//DTD SVG 1.1//EN" "http://www.w3.org/Graphics/SVG/1.1/DTD/svg11.dtd">
<svg version="1.1" id="Layer_1" xmlns="http://www.w3.org/2000/svg" xmlns:xlink="http://www.w3.org/1999/xlink" x="0px" y="0px"
	 width="28.018px" height="40.753px" viewBox="0 0 28.018 40.753" enable-background="new 0 0 28.018 40.753" xml:space="preserve">
<g>
	<defs>
		<rect id="SVGID_1_" x="-513.976" y="-283.993" width="1024" height="545.51"/>
	</defs>
	<clipPath id="SVGID_2_">
		<use xlink:href="#SVGID_1_"  overflow="visible"/>
	</clipPath>
</g>
<g>
	<path fill="#FFFFFF" d="M14.009,22.765c-1.848,0.003-3.338,1.497-3.342,3.343c0.004,1.845,1.494,3.34,3.342,3.342
		c1.846-0.002,3.338-1.497,3.344-3.342C17.347,24.262,15.855,22.768,14.009,22.765z"/>
	<path fill="#FFFFFF" d="M26.107,0H1.908C0.857,0,0,0.854,0,1.91v36.934c0,1.053,0.857,1.909,1.908,1.909h24.199
		c1.055,0,1.91-0.856,1.91-1.909V1.91C28.019,0.854,27.162,0,26.107,0z M14.007,3.5c2.113,0,3.822,1.709,3.822,3.821
		c0,2.111-1.709,3.819-3.822,3.819c-2.109,0-3.82-1.708-3.82-3.819C10.187,5.209,11.898,3.5,14.007,3.5z M14.007,37.093
		c-6.066,0-10.984-4.919-10.984-10.985c0-6.068,4.918-10.984,10.984-10.985c6.07,0.001,10.982,4.917,10.986,10.985
		C24.99,32.175,20.078,37.093,14.007,37.093z"/>
</g>
</svg>
