<?xml version="1.0" encoding="utf-8"?>
<!-- Generator: Adobe Illustrator 16.0.3, SVG Export Plug-In . SVG Version: 6.00 Build 0)  -->
<!DOCTYPE svg PUBLIC "-//W3C//DTD SVG 1.1//EN" "http://www.w3.org/Graphics/SVG/1.1/DTD/svg11.dtd">
<svg version="1.1" id="Layer_1" xmlns="http://www.w3.org/2000/svg" xmlns:xlink="http://www.w3.org/1999/xlink" x="0px" y="0px"
	 width="55.512px" height="36.509px" viewBox="0 0 55.512 36.509" enable-background="new 0 0 55.512 36.509" xml:space="preserve">
<g>
	<defs>
		<rect id="SVGID_1_" x="-641.609" y="-288.756" width="1024" height="545.51"/>
	</defs>
	<clipPath id="SVGID_2_">
		<use xlink:href="#SVGID_1_"  overflow="visible"/>
	</clipPath>
</g>
<g>
	<g>
		<path fill="#FFFFFF" d="M52.776,23.833c0.051,0.229,0.082,0.464,0.082,0.697c0,4.885-11.238,8.845-25.104,8.845
			c-13.863,0-25.102-3.96-25.102-8.845c0-0.234,0.033-0.469,0.086-0.697C0.985,24.992,0,26.293,0,27.665
			c0,4.885,12.428,8.844,27.754,8.844c15.33,0,27.758-3.959,27.758-8.844C55.512,26.293,54.528,24.992,52.776,23.833z"/>
	</g>
	<path fill="#FFFFFF" d="M49.346,17.287C46.219,10.135,39.323,4.873,31.04,3.758c0.086-0.271,0.145-0.554,0.145-0.852
		C31.184,1.303,29.838,0,28.176,0c-1.66,0-3.004,1.301-3.004,2.906c0,0.266,0.047,0.519,0.117,0.763
		C16.643,4.538,9.397,9.902,6.167,17.288C5,19.952,4.358,22.875,4.358,25.941c0,0.024,0,0.051,0,0.076
		c3.379,3.451,12.574,5.926,23.396,5.926c10.824,0,20.02-2.475,23.398-5.926c0.004-0.025,0.004-0.052,0.004-0.076
		C51.157,22.873,50.512,19.951,49.346,17.287z M28.176,1.016c0.725,0,1.311,0.566,1.311,1.267c0,0.695-0.58,1.257-1.299,1.264
		c-0.014,0-0.023-0.002-0.031-0.002c-0.715-0.012-1.289-0.572-1.289-1.262C26.868,1.582,27.454,1.016,28.176,1.016z"/>
</g>
</svg>
